<?xml version="1.0"?><svg xmlns="http://www.w3.org/2000/svg" width="161" height="161"><rect x="0" y="0" width="100%" height="100%" fill="rgb(253, 203, 110)" /><g fill="#222" style="opacity:0.098;" transform="translate(-26.8755, -26.8755) rotate(45, 26.8755, 26.8755)" ><rect x="19" y="0" width="19" height="57" /><rect x="0" y="19" width="57" height="19" /></g><g fill="#222" style="opacity:0.098;" transform="translate(134.3775, -26.8755) rotate(45, 26.8755, 26.8755)" ><rect x="19" y="0" width="19" height="57" /><rect x="0" y="19" width="57" height="19" /></g><g fill="#222" style="opacity:0.098;" transform="translate(-26.8755, 134.3775) rotate(45, 26.8755, 26.8755)" ><rect x="19" y="0" width="19" height="57" /><rect x="0" y="19" width="57" height="19" /></g><g fill="#222" style="opacity:0.098;" transform="translate(134.3775, 134.3775) rotate(45, 26.8755, 26.8755" ><rect x="19" y="0" width="19" height="57" /><rect x="0" y="19" width="57" height="19" /></g><g fill="#ddd" style="opacity:0.02;" transform="translate(0, -13.43775) rotate(45, 26.8755, 26.8755)" ><rect x="19" y="0" width="19" height="57" /><rect x="0" y="19" width="57" height="19" /></g><g fill="#ddd" style="opacity:0.02;" transform="translate(0, 147.81525) rotate(45, 26.8755, 26.8755)" ><rect x="19" y="0" width="19" height="57" /><rect x="0" y="19" width="57" height="19" /></g><g fill="#222" style="opacity:0.15;" transform="translate(26.8755, -26.8755) rotate(45, 26.8755, 26.8755)" ><rect x="19" y="0" width="19" height="57" /><rect x="0" y="19" width="57" height="19" /></g><g fill="#222" style="opacity:0.15;" transform="translate(26.8755, 134.3775) rotate(45, 26.8755, 26.8755)" ><rect x="19" y="0" width="19" height="57" /><rect x="0" y="19" width="57" height="19" /></g><g fill="#222" style="opacity:0.098;" transform="translate(53.751, -13.43775) rotate(45, 26.8755, 26.8755)" ><rect x="19" y="0" width="19" height="57" /><rect x="0" y="19" width="57" height="19" /></g><g fill="#222" style="opacity:0.098;" transform="translate(53.751, 147.81525) rotate(45, 26.8755, 26.8755)" ><rect x="19" y="0" width="19" height="57" /><rect x="0" y="19" width="57" height="19" /></g><g fill="#ddd" style="opacity:0.089333333333333;" transform="translate(80.6265, -26.8755) rotate(45, 26.8755, 26.8755)" ><rect x="19" y="0" width="19" height="57" /><rect x="0" y="19" width="57" height="19" /></g><g fill="#ddd" style="opacity:0.089333333333333;" transform="translate(80.6265, 134.3775) rotate(45, 26.8755, 26.8755)" ><rect x="19" y="0" width="19" height="57" /><rect x="0" y="19" width="57" height="19" /></g><g fill="#ddd" style="opacity:0.124;" transform="translate(107.502, -13.43775) rotate(45, 26.8755, 26.8755)" ><rect x="19" y="0" width="19" height="57" /><rect x="0" y="19" width="57" height="19" /></g><g fill="#ddd" style="opacity:0.124;" transform="translate(107.502, 147.81525) rotate(45, 26.8755, 26.8755)" ><rect x="19" y="0" width="19" height="57" /><rect x="0" y="19" width="57" height="19" /></g><g fill="#ddd" style="opacity:0.02;" transform="translate(-26.8755, 0) rotate(45, 26.8755, 26.8755)" ><rect x="19" y="0" width="19" height="57" /><rect x="0" y="19" width="57" height="19" /></g><g fill="#ddd" style="opacity:0.02;" transform="translate(134.3775, 0) rotate(45, 26.8755, 26.8755)" ><rect x="19" y="0" width="19" height="57" /><rect x="0" y="19" width="57" height="19" /></g><g fill="#ddd" style="opacity:0.14133333333333;" transform="translate(0, 13.43775) rotate(45, 26.8755, 26.8755)" ><rect x="19" y="0" width="19" height="57" /><rect x="0" y="19" width="57" height="19" /></g><g fill="#ddd" style="opacity:0.10666666666667;" transform="translate(26.8755, 0) rotate(45, 26.8755, 26.8755)" ><rect x="19" y="0" width="19" height="57" /><rect x="0" y="19" width="57" height="19" /></g><g fill="#ddd" style="opacity:0.054666666666667;" transform="translate(53.751, 13.43775) rotate(45, 26.8755, 26.8755)" ><rect x="19" y="0" width="19" height="57" /><rect x="0" y="19" width="57" height="19" /></g><g fill="#ddd" style="opacity:0.037333333333333;" transform="translate(80.6265, 0) rotate(45, 26.8755, 26.8755)" ><rect x="19" y="0" width="19" height="57" /><rect x="0" y="19" width="57" height="19" /></g><g fill="#ddd" style="opacity:0.124;" transform="translate(107.502, 13.43775) rotate(45, 26.8755, 26.8755)" ><rect x="19" y="0" width="19" height="57" /><rect x="0" y="19" width="57" height="19" /></g><g fill="#222" style="opacity:0.098;" transform="translate(-26.8755, 26.8755) rotate(45, 26.8755, 26.8755)" ><rect x="19" y="0" width="19" height="57" /><rect x="0" y="19" width="57" height="19" /></g><g fill="#222" style="opacity:0.098;" transform="translate(134.3775, 26.8755) rotate(45, 26.8755, 26.8755)" ><rect x="19" y="0" width="19" height="57" /><rect x="0" y="19" width="57" height="19" /></g><g fill="#ddd" style="opacity:0.037333333333333;" transform="translate(0, 40.31325) rotate(45, 26.8755, 26.8755)" ><rect x="19" y="0" width="19" height="57" /><rect x="0" y="19" width="57" height="19" /></g><g fill="#222" style="opacity:0.080666666666667;" transform="translate(26.8755, 26.8755) rotate(45, 26.8755, 26.8755)" ><rect x="19" y="0" width="19" height="57" /><rect x="0" y="19" width="57" height="19" /></g><g fill="#ddd" style="opacity:0.124;" transform="translate(53.751, 40.31325) rotate(45, 26.8755, 26.8755)" ><rect x="19" y="0" width="19" height="57" /><rect x="0" y="19" width="57" height="19" /></g><g fill="#ddd" style="opacity:0.054666666666667;" transform="translate(80.6265, 26.8755) rotate(45, 26.8755, 26.8755)" ><rect x="19" y="0" width="19" height="57" /><rect x="0" y="19" width="57" height="19" /></g><g fill="#222" style="opacity:0.11533333333333;" transform="translate(107.502, 40.31325) rotate(45, 26.8755, 26.8755)" ><rect x="19" y="0" width="19" height="57" /><rect x="0" y="19" width="57" height="19" /></g><g fill="#ddd" style="opacity:0.02;" transform="translate(-26.8755, 53.751) rotate(45, 26.8755, 26.8755)" ><rect x="19" y="0" width="19" height="57" /><rect x="0" y="19" width="57" height="19" /></g><g fill="#ddd" style="opacity:0.02;" transform="translate(134.3775, 53.751) rotate(45, 26.8755, 26.8755)" ><rect x="19" y="0" width="19" height="57" /><rect x="0" y="19" width="57" height="19" /></g><g fill="#222" style="opacity:0.080666666666667;" transform="translate(0, 67.18875) rotate(45, 26.8755, 26.8755)" ><rect x="19" y="0" width="19" height="57" /><rect x="0" y="19" width="57" height="19" /></g><g fill="#222" style="opacity:0.046;" transform="translate(26.8755, 53.751) rotate(45, 26.8755, 26.8755)" ><rect x="19" y="0" width="19" height="57" /><rect x="0" y="19" width="57" height="19" /></g><g fill="#ddd" style="opacity:0.02;" transform="translate(53.751, 67.18875) rotate(45, 26.8755, 26.8755)" ><rect x="19" y="0" width="19" height="57" /><rect x="0" y="19" width="57" height="19" /></g><g fill="#222" style="opacity:0.046;" transform="translate(80.6265, 53.751) rotate(45, 26.8755, 26.8755)" ><rect x="19" y="0" width="19" height="57" /><rect x="0" y="19" width="57" height="19" /></g><g fill="#ddd" style="opacity:0.089333333333333;" transform="translate(107.502, 67.18875) rotate(45, 26.8755, 26.8755)" ><rect x="19" y="0" width="19" height="57" /><rect x="0" y="19" width="57" height="19" /></g><g fill="#ddd" style="opacity:0.10666666666667;" transform="translate(-26.8755, 80.6265) rotate(45, 26.8755, 26.8755)" ><rect x="19" y="0" width="19" height="57" /><rect x="0" y="19" width="57" height="19" /></g><g fill="#ddd" style="opacity:0.10666666666667;" transform="translate(134.3775, 80.6265) rotate(45, 26.8755, 26.8755)" ><rect x="19" y="0" width="19" height="57" /><rect x="0" y="19" width="57" height="19" /></g><g fill="#222" style="opacity:0.028666666666667;" transform="translate(0, 94.06425) rotate(45, 26.8755, 26.8755)" ><rect x="19" y="0" width="19" height="57" /><rect x="0" y="19" width="57" height="19" /></g><g fill="#222" style="opacity:0.15;" transform="translate(26.8755, 80.6265) rotate(45, 26.8755, 26.8755)" ><rect x="19" y="0" width="19" height="57" /><rect x="0" y="19" width="57" height="19" /></g><g fill="#222" style="opacity:0.11533333333333;" transform="translate(53.751, 94.06425) rotate(45, 26.8755, 26.8755)" ><rect x="19" y="0" width="19" height="57" /><rect x="0" y="19" width="57" height="19" /></g><g fill="#222" style="opacity:0.15;" transform="translate(80.6265, 80.6265) rotate(45, 26.8755, 26.8755)" ><rect x="19" y="0" width="19" height="57" /><rect x="0" y="19" width="57" height="19" /></g><g fill="#ddd" style="opacity:0.054666666666667;" transform="translate(107.502, 94.06425) rotate(45, 26.8755, 26.8755)" ><rect x="19" y="0" width="19" height="57" /><rect x="0" y="19" width="57" height="19" /></g><g fill="#ddd" style="opacity:0.02;" transform="translate(-26.8755, 107.502) rotate(45, 26.8755, 26.8755)" ><rect x="19" y="0" width="19" height="57" /><rect x="0" y="19" width="57" height="19" /></g><g fill="#ddd" style="opacity:0.02;" transform="translate(134.3775, 107.502) rotate(45, 26.8755, 26.8755)" ><rect x="19" y="0" width="19" height="57" /><rect x="0" y="19" width="57" height="19" /></g><g fill="#ddd" style="opacity:0.02;" transform="translate(-26.8755, -53.751) rotate(45, 26.8755, 26.8755)" ><rect x="19" y="0" width="19" height="57" /><rect x="0" y="19" width="57" height="19" /></g><g fill="#222" style="opacity:0.028666666666667;" transform="translate(0, 120.93975) rotate(45, 26.8755, 26.8755)" ><rect x="19" y="0" width="19" height="57" /><rect x="0" y="19" width="57" height="19" /></g><g fill="#222" style="opacity:0.028666666666667;" transform="translate(0, -40.31325) rotate(45, 26.8755, 26.8755)" ><rect x="19" y="0" width="19" height="57" /><rect x="0" y="19" width="57" height="19" /></g><g fill="#222" style="opacity:0.15;" transform="translate(26.8755, 107.502) rotate(45, 26.8755, 26.8755)" ><rect x="19" y="0" width="19" height="57" /><rect x="0" y="19" width="57" height="19" /></g><g fill="#222" style="opacity:0.15;" transform="translate(26.8755, -53.751) rotate(45, 26.8755, 26.8755)" ><rect x="19" y="0" width="19" height="57" /><rect x="0" y="19" width="57" height="19" /></g><g fill="#222" style="opacity:0.15;" transform="translate(53.751, 120.93975) rotate(45, 26.8755, 26.8755)" ><rect x="19" y="0" width="19" height="57" /><rect x="0" y="19" width="57" height="19" /></g><g fill="#222" style="opacity:0.15;" transform="translate(53.751, -40.31325) rotate(45, 26.8755, 26.8755)" ><rect x="19" y="0" width="19" height="57" /><rect x="0" y="19" width="57" height="19" /></g><g fill="#222" style="opacity:0.13266666666667;" transform="translate(80.6265, 107.502) rotate(45, 26.8755, 26.8755)" ><rect x="19" y="0" width="19" height="57" /><rect x="0" y="19" width="57" height="19" /></g><g fill="#222" style="opacity:0.13266666666667;" transform="translate(80.6265, -53.751) rotate(45, 26.8755, 26.8755)" ><rect x="19" y="0" width="19" height="57" /><rect x="0" y="19" width="57" height="19" /></g><g fill="#ddd" style="opacity:0.054666666666667;" transform="translate(107.502, 120.93975) rotate(45, 26.8755, 26.8755)" ><rect x="19" y="0" width="19" height="57" /><rect x="0" y="19" width="57" height="19" /></g><g fill="#ddd" style="opacity:0.054666666666667;" transform="translate(107.502, -40.31325) rotate(45, 26.8755, 26.8755)" ><rect x="19" y="0" width="19" height="57" /><rect x="0" y="19" width="57" height="19" /></g></svg>