<svg width="31" height="32" viewBox="0 0 31 32" fill="none" xmlns="http://www.w3.org/2000/svg">
<path d="M25.6175 9.55491C25.132 10.1129 24.8307 10.8513 24.8307 11.6583V19.2734L13.8994 30.4857C12.7024 31.7134 10.7522 31.7134 9.55529 30.4857C8.35836 29.258 8.35836 27.2577 9.55529 26.03L25.6175 9.55491Z" fill="#2E73EC"/>
<path d="M6.58349 12.2335V19.84C6.58349 20.6728 6.27379 21.4197 5.76322 21.9863L5.68789 22.0636C5.08524 22.6818 4.29845 22.9822 3.52003 22.9822C2.93413 22.9822 2.33985 22.8105 1.82927 22.4671C1.78742 22.4414 1.74557 22.407 1.70372 22.3813C1.68698 22.3641 1.66187 22.3469 1.64513 22.3298C1.62839 22.3126 1.60328 22.2954 1.58654 22.2782C1.5698 22.2611 1.54469 22.2439 1.52795 22.2267C1.51121 22.2096 1.4861 22.1924 1.46936 22.1752C1.44425 22.1495 1.41914 22.1323 1.4024 22.1065C1.38566 22.0894 1.36892 22.0722 1.36055 22.0636C1.33544 22.0379 1.3187 22.0121 1.29359 21.9949L1.28522 21.9863L1.27685 21.9778L1.26848 21.9692C1.25174 21.9434 1.22663 21.9263 1.20989 21.9005C1.20152 21.8919 1.19315 21.8833 1.18478 21.8662C1.13456 21.8061 1.08433 21.746 1.04248 21.6773C1.04248 21.6687 1.03412 21.6687 1.03412 21.6601C1.00901 21.6258 0.992264 21.5914 0.967154 21.5571C0.942044 21.5227 0.925304 21.4884 0.900194 21.4455C0.875084 21.4111 0.858343 21.3768 0.841602 21.3339C0.824862 21.3081 0.816492 21.2824 0.799752 21.2566C0.791382 21.248 0.783013 21.2308 0.783013 21.2223C0.766273 21.1879 0.749532 21.1536 0.732792 21.1107C0.716052 21.0763 0.699312 21.0334 0.690942 20.999C0.674202 20.9647 0.665831 20.9304 0.649091 20.8874V20.8789C0.640721 20.8445 0.623982 20.8102 0.615611 20.7758C0.615611 20.7672 0.607241 20.7587 0.607241 20.7501C0.598871 20.7157 0.590499 20.69 0.582129 20.6556C0.582129 20.6471 0.573761 20.6299 0.573761 20.6213C0.565391 20.5955 0.557019 20.5612 0.548649 20.5354C0.540279 20.4839 0.52354 20.4324 0.52354 20.3895C0.51517 20.3552 0.515169 20.3208 0.506799 20.2865C0.506799 20.2607 0.498428 20.235 0.498428 20.2178C0.490058 20.1491 0.481689 20.0718 0.481689 20.0032C0.481689 19.9516 0.481689 19.8916 0.481689 19.84C0.481689 19.033 0.783011 18.226 1.37729 17.6165L6.58349 12.2335Z" fill="#37290F"/>
<path d="M30.966 11.6669V21.8662C30.966 23.609 29.5933 25.0169 27.8941 25.0169C26.195 25.0169 24.8307 23.609 24.8307 21.8662V19.282L30.0704 13.9076C31.2673 12.6799 31.2673 10.6796 30.0704 9.45189C29.4677 8.83375 28.6809 8.53327 27.9025 8.53327C27.1157 8.53327 26.3289 8.84234 25.7347 9.45189L25.6258 9.5635C25.6593 9.52057 25.7012 9.47764 25.743 9.4433C26.2955 8.87668 27.0655 8.52468 27.9109 8.52468C29.5933 8.52468 30.966 9.93266 30.966 11.6669Z" fill="#FFBA00"/>
<path d="M30.0704 13.899L24.8307 19.2734V11.6583C24.8307 10.8513 25.1236 10.113 25.6175 9.55491L25.7263 9.4433C26.3289 8.82517 27.1157 8.52468 27.8941 8.52468C28.6809 8.52468 29.4677 8.83375 30.062 9.4433C31.2673 10.671 31.2673 12.6714 30.0704 13.899Z" fill="#2E5400"/>
<path d="M6.58389 9.64077V12.2335L1.34421 17.6079C0.74156 18.226 0.448608 19.033 0.448608 19.8315V9.64077C0.448608 7.89796 1.8213 6.48998 3.52043 6.48998C5.21119 6.48998 6.58389 7.89796 6.58389 9.64077Z" fill="#F33E35"/>
<path d="M21.8596 5.47692L5.76392 21.9863C6.27449 21.4283 6.58419 20.6728 6.58419 19.84V12.2335L17.5155 1.02118C18.7125 -0.206512 20.6627 -0.206512 21.8596 1.02118C23.0566 2.24887 23.0566 4.24923 21.8596 5.47692Z" fill="#3AA74A"/>
</svg>
